<svg xmlns="http://www.w3.org/2000/svg" viewBox="0 0 100 100" width="500" height="500" fill="#fff"><path d="M52.94 7.91q-.699.01-1.364.055C30.623 9.375 11.731 28.23 9.14 50.19c-1.145 9.688 1.365 21.534 15.035 33.354a30 30 0 0 0 1.949 1.69 31 31 0 0 0 1.293.953l.07.054a1 1 0 0 0 .102.07l.004.004C43.013 96.97 66.13 91.352 80.136 73.52c14.36-18.283 13.97-42.823-1.117-54.996a1 1 0 0 0-.108-.105C69.272 10.386 59.922 7.807 52.94 7.91m5.7 5.912c6.87-.15 13.46 1.797 18.842 6.026 14.356 11.275 14.986 34.73 1.079 52.437-13.501 17.188-35.51 22.35-49.918 12.322a72 72 0 0 1-3.143-2.56c-12.514-11.784-12.495-33.921.781-50.824 8.692-11.067 20.912-17.149 32.36-17.4m-.654 4.547c-10.231.245-21.083 5.718-28.74 15.467l-.037.049-.033.04a42 42 0 0 0-3.852 5.835c-8.06 14.63-6.428 31.868 4.97 40.822C43.28 90.781 63.709 86.125 75.96 70.527s11.935-36.547-1.05-46.746c-4.87-3.824-10.785-5.559-16.924-5.412m-1.24 2.71c5.502-.144 10.77 1.397 15.06 4.767 11.44 8.985 11.896 27.811.676 42.095-11.22 14.285-29.619 18.302-41.058 9.317-10.344-8.125-11.706-24.297-3.576-37.881a42 42 0 0 1 2.97-4.305q.494-.622 1.002-1.22c6.92-8.1 16.215-12.547 24.926-12.774m-3.96 3.573a1 1 0 0 0-.985 1.014V30.4a1 1 0 1 0 2 0v-4.734a1 1 0 0 0-1.016-1.014m28.683.434c.372.543.799 1.106 1.299 1.691a20 20 0 0 0-1.3-1.691m-20.545 3.53c-.944.06-2.032.776-2.574 2.224-1.35 3.586-4.545 11.908-6.387 16.719-.89.304-1.76.892-2.488 1.82-1.86 2.367-1.416 5.122.265 6.443.775.608 1.785.872 2.828.768l3.621 7c1.7 2.94 4.771.5 3.561-1.84l-3.715-7.166.028-.03c1.79-2.278 1.433-4.903-.096-6.275A4060 4060 0 0 0 62.38 31.48c.731-1.935-.244-2.942-1.457-2.865m9.91.32a1 1 0 0 0-.748.388l-2.947 3.703a1 1 0 0 0 1.566 1.246l2.947-3.705a1 1 0 0 0-.818-1.632m-36.648 7.486a1 1 0 0 0-.598 1.79l3.486 2.774a1 1 0 1 0 1.244-1.564l-3.486-2.774a1 1 0 0 0-.646-.226m43.464 9.56a1 1 0 0 0-.17.022l-4.57.883a1 1 0 1 0 .38 1.963l4.571-.883a1 1 0 0 0-.21-1.985M53.443 49.24c.427.03.81.202 1.12.446.826.649 1.282 1.91-.073 3.634-1.354 1.725-2.687 1.579-3.513.93s-1.285-1.91.07-3.635c.846-1.078 1.685-1.424 2.396-1.375m-21.845 6.49a1 1 0 0 0-.17.02l-4.764.92a1 1 0 1 0 .379 1.965l4.764-.922a1 1 0 0 0-.21-1.983m35.947 6.893a1 1 0 0 0-.598 1.791l2.948 2.346a1 1 0 1 0 1.246-1.565l-2.948-2.345a1 1 0 0 0-.648-.227m-29.52 6.783a1 1 0 0 0-.748.387l-3.404 4.28a1 1 0 1 0 1.566 1.243l3.403-4.277a1 1 0 0 0-.817-1.633m15.057 2.742"/></svg>